<?xml version="1.0" encoding="UTF-8" standalone="no"?>
<!DOCTYPE svg PUBLIC "-//W3C//DTD SVG 1.1//EN" "http://www.w3.org/Graphics/SVG/1.1/DTD/svg11.dtd">
<svg xmlns="http://www.w3.org/2000/svg" version="1.1" viewBox="0.00 0.00 466.00 535.00">
<g stroke-width="2.00" fill="none" stroke-linecap="butt">
<path stroke="#1e8c66" vector-effect="non-scaling-stroke" d="
  M 366.83 101.42
  Q 366.27 101.64 365.54 101.44
  C 361.32 100.25 354.83 98.50 349.99 97.96
  Q 320.28 94.60 295.82 106.57
  Q 259.91 124.13 245.61 162.10
  Q 244.86 164.10 243.63 164.49"
/>
<path stroke="#2a7d7f" vector-effect="non-scaling-stroke" d="
  M 243.63 164.49
  Q 242.07 163.79 241.90 161.83
  Q 240.85 150.34 240.66 147.31"
/>
<path stroke="#1e8c66" vector-effect="non-scaling-stroke" d="
  M 240.66 147.31
  L 241.03 139.33"
/>
<path stroke="#186e7e" vector-effect="non-scaling-stroke" d="
  M 240.66 147.31
  Q 226.98 147.99 215.23 151.20
  Q 195.08 156.69 174.57 169.29
  Q 169.30 172.52 164.40 177.30
  A 1.00 1.00 0.0 0 0 164.80 178.97
  C 168.64 180.17 173.62 179.39 179.49 179.18
  Q 181.52 179.11 182.93 179.60
  A 2.32 2.32 0.0 0 1 184.48 181.61
  Q 185.04 188.24 181.68 193.12
  A 5.54 5.51 -27.8 0 0 180.70 196.26
  L 180.70 204.16
  A 2.09 2.09 0.0 0 0 182.93 206.24
  C 188.16 205.89 193.05 205.20 197.30 207.40
  A 1.46 1.44 6.9 0 1 198.02 208.31
  Q 199.40 213.58 197.65 217.62
  A 2.50 2.49 12.1 0 1 195.33 219.12
  Q 177.41 218.86 158.75 218.94
  Q 155.92 218.96 154.93 219.32
  A 2.65 2.64 -10.5 0 0 153.21 221.81
  Q 153.22 224.03 153.44 229.41
  Q 153.55 231.98 155.79 231.93
  Q 167.41 231.68 175.41 231.79
  A 2.28 2.27 82.6 0 1 177.56 233.45
  Q 178.79 237.78 178.12 241.42
  C 177.58 244.32 173.70 244.60 170.69 245.34
  A 2.97 2.96 -6.8 0 0 168.42 248.22
  L 168.42 255.70
  A 2.22 2.22 0.0 0 0 170.64 257.92
  L 192.56 257.92
  A 0.84 0.82 -11.0 0 1 193.33 258.43
  Q 195.45 263.60 194.28 268.47
  A 2.54 2.54 0.0 0 1 191.69 270.41
  Q 186.38 270.13 182.49 270.69
  Q 179.95 271.06 179.88 273.72
  Q 179.75 278.80 180.09 282.29
  A 1.98 1.98 0.0 0 0 182.06 284.07
  L 199.03 284.07
  A 1.68 1.68 0.0 0 1 200.70 285.60
  C 200.95 288.13 201.68 292.82 200.56 295.25
  A 2.45 2.45 0.0 0 1 198.29 296.67
  Q 187.04 296.45 176.68 296.64
  Q 174.18 296.69 171.97 297.17
  A 2.24 2.24 0.0 0 0 170.20 299.36
  L 170.20 306.70
  A 3.32 3.31 9.3 0 0 172.46 309.84
  L 175.72 310.93
  A 3.30 3.29 2.5 0 1 177.87 313.27
  Q 178.33 315.20 178.39 319.14
  Q 178.44 322.77 174.99 322.98
  Q 170.54 323.27 159.25 323.13
  Q 155.56 323.08 155.46 326.48
  Q 155.35 330.12 155.57 333.66
  A 2.16 2.16 0.0 0 0 157.73 335.69
  C 162.20 335.68 166.58 335.97 170.77 335.84
  Q 186.17 335.37 208.51 335.88
  Q 210.33 335.92 212.35 336.71
  A 0.99 0.99 0.0 0 1 212.96 337.45
  C 213.30 339.19 213.98 345.28 212.41 347.11
  A 1.68 1.67 -76.7 0 1 211.57 347.63
  C 208.64 348.35 204.09 347.75 204.16 352.08
  Q 204.33 361.12 204.40 371.40
  Q 204.42 374.87 201.21 374.89
  Q 197.53 374.93 194.32 375.44
  A 2.80 2.80 0.0 0 0 191.96 377.98
  Q 191.63 382.00 192.40 384.96
  A 4.18 4.16 3.6 0 0 194.92 387.80
  L 197.80 388.91
  A 1.30 1.26 -9.7 0 1 198.28 389.24
  C 200.57 391.70 200.12 396.72 199.46 399.32
  A 2.08 2.07 -82.8 0 1 197.45 400.88
  L 182.34 400.88
  A 0.55 0.55 0.0 0 0 182.07 401.90
  Q 191.29 407.17 201.52 411.23
  C 204.40 412.38 207.01 413.07 209.95 413.83
  Q 210.20 413.90 218.94 416.58
  Q 220.76 417.13 228.80 418.20
  C 233.61 418.84 237.82 419.87 242.50 420.04
  C 272.94 421.15 302.43 413.32 327.31 396.00
  C 331.61 393.00 337.68 387.97 340.68 385.44
  C 349.51 378.04 356.17 369.65 364.03 358.43
  Q 369.15 351.12 372.32 343.79
  Q 377.94 330.81 379.43 326.45
  Q 386.48 305.87 386.20 282.49
  Q 386.03 269.00 384.11 258.28
  Q 380.94 240.64 371.90 222.22
  Q 365.89 209.97 354.43 195.49
  Q 350.04 189.94 344.47 184.75
  C 342.68 183.09 340.99 182.20 338.86 183.14
  C 328.95 187.52 317.93 189.35 307.00 189.77
  Q 305.99 189.81 303.08 190.47
  A 1.51 1.44 -75.4 0 0 302.29 190.96
  Q 295.70 198.68 291.99 202.24
  Q 290.73 203.46 288.17 205.26
  A 2.11 2.01 88.6 0 0 287.57 205.92
  Q 286.26 208.26 286.38 209.77
  Q 287.13 219.40 285.87 228.33
  A 2.31 2.30 84.6 0 1 284.35 230.18
  Q 281.88 231.04 279.24 230.82
  Q 270.42 230.08 265.05 228.21
  C 258.59 225.97 255.34 224.58 251.75 222.05
  Q 249.70 220.61 247.24 220.93
  A 1.75 1.72 -62.1 0 0 246.67 221.11
  Q 234.53 227.38 228.77 229.06
  C 224.49 230.31 216.16 231.68 211.41 229.95
  A 3.26 3.25 9.7 0 1 209.27 226.94
  L 209.13 214.00
  A 1.36 1.33 52.4 0 1 209.18 213.57
  Q 210.02 210.12 209.16 207.51
  A 2.17 2.15 -78.4 0 0 208.56 206.59
  C 202.23 200.79 197.93 197.39 194.58 191.57
  A 1.79 1.78 -33.6 0 1 195.05 189.27
  L 197.56 187.36
  A 1.52 1.32 12.3 0 1 197.89 187.18
  Q 204.73 184.48 205.97 184.16
  Q 209.18 183.34 222.67 180.69
  Q 223.39 180.55 227.58 178.51
  A 2.52 2.51 -81.4 0 0 228.35 177.94
  Q 231.85 174.10 240.54 169.30
  Q 244.51 167.11 243.63 164.49"
/>
</g>
<g>
<path fill="#309b67" d="
  M 366.83 101.42
  Q 366.27 101.64 365.54 101.44
  C 361.32 100.25 354.83 98.50 349.99 97.96
  Q 320.28 94.60 295.82 106.57
  Q 259.91 124.13 245.61 162.10
  Q 244.86 164.10 243.63 164.49
  Q 242.07 163.79 241.90 161.83
  Q 240.85 150.34 240.66 147.31
  L 241.03 139.33
  Q 242.49 114.35 252.85 91.84
  Q 268.07 58.76 298.25 37.96
  Q 329.39 16.50 367.28 16.45
  Q 375.50 16.44 382.71 17.71
  A 1.09 1.09 0.0 0 1 383.59 18.53
  Q 384.12 20.72 384.31 22.89
  Q 387.88 62.66 369.04 97.56
  C 368.44 98.67 367.38 100.03 366.83 101.42
  Z"
/>
<path fill="#0b7d64" d="
  M 366.83 101.42
  Q 366.92 101.55 366.99 101.66
  A 0.82 0.78 -6.0 0 0 367.41 101.98
  Q 382.73 107.23 396.02 117.18
  C 398.48 119.03 397.59 120.71 396.54 123.53
  Q 383.22 159.40 350.05 178.16
  A 0.97 0.97 0.0 0 0 349.85 179.70
  Q 381.95 210.88 391.05 254.70
  Q 394.48 271.22 393.52 292.20
  C 391.91 327.47 375.90 361.67 350.99 386.03
  Q 319.39 416.93 276.09 425.12
  C 240.46 431.86 202.92 424.45 172.20 405.04
  A 2.10 2.08 16.5 0 1 171.23 403.28
  L 171.23 388.76
  A 0.57 0.56 -0.0 0 1 171.80 388.20
  L 181.00 388.20
  A 1.08 1.08 0.0 0 0 182.08 387.12
  L 182.08 376.26
  A 1.13 1.13 0.0 0 0 180.96 375.13
  Q 174.07 375.08 156.25 375.26
  Q 154.73 375.28 148.88 374.80
  A 0.77 0.76 2.5 0 1 148.18 374.04
  L 148.18 362.96
  A 0.55 0.54 -90.0 0 1 148.72 362.41
  L 192.67 362.41
  A 1.22 1.22 0.0 0 0 193.89 361.19
  L 193.89 349.42
  A 1.02 1.02 0.0 0 0 192.87 348.40
  L 100.35 348.40
  A 1.01 1.01 0.0 0 1 99.34 347.39
  L 99.34 336.20
  A 0.50 0.49 90.0 0 1 99.83 335.70
  L 144.72 335.70
  A 0.68 0.67 -0.0 0 0 145.40 335.03
  L 145.40 324.05
  A 0.97 0.96 90.0 0 0 144.44 323.08
  L 70.31 323.08
  A 1.42 1.42 0.0 0 1 68.89 321.66
  L 68.89 310.84
  A 0.44 0.43 -0.0 0 1 69.33 310.41
  L 159.01 310.41
  A 0.86 0.86 0.0 0 0 159.87 309.55
  L 159.87 297.46
  A 0.72 0.71 -0.0 0 0 159.15 296.75
  L 125.09 296.75
  A 1.29 1.28 90.0 0 1 123.81 295.46
  L 123.81 284.80
  A 0.71 0.71 0.0 0 1 124.52 284.09
  L 168.77 284.09
  A 1.15 1.14 0.0 0 0 169.92 282.95
  L 169.92 271.38
  A 0.76 0.75 0.0 0 0 169.16 270.63
  L 74.45 270.63
  A 1.20 1.20 0.0 0 1 73.25 269.43
  L 73.25 258.51
  A 0.53 0.53 0.0 0 1 73.78 257.98
  L 115.14 257.98
  A 0.88 0.88 0.0 0 0 116.02 257.10
  L 116.02 245.46
  A 0.95 0.95 0.0 0 0 115.07 244.51
  L 45.67 244.51
  A 1.01 1.01 0.0 0 1 44.66 243.50
  L 44.66 232.49
  A 0.76 0.76 0.0 0 1 45.42 231.73
  L 142.53 231.73
  A 0.63 0.63 0.0 0 0 143.16 231.10
  L 143.16 219.73
  A 0.84 0.84 0.0 0 0 142.32 218.89
  L 92.75 218.89
  A 0.67 0.67 0.0 0 1 92.08 218.22
  L 92.08 206.86
  A 0.64 0.64 0.0 0 1 92.72 206.22
  L 132.23 206.22
  A 1.04 1.04 0.0 0 0 133.27 205.18
  L 133.27 193.14
  A 1.28 1.27 -90.0 0 0 132.00 191.86
  L 79.24 191.86
  A 1.41 1.41 0.0 0 1 77.83 190.45
  L 77.83 180.09
  A 0.87 0.86 0.0 0 1 78.70 179.23
  Q 112.54 179.19 148.50 179.23
  Q 150.41 179.23 152.24 177.48
  Q 158.17 171.80 164.69 167.12
  A 0.55 0.55 0.0 0 0 164.37 166.12
  L 147.17 166.12
  A 0.93 0.93 0.0 0 1 146.24 165.19
  L 146.24 153.93
  A 0.56 0.56 0.0 0 1 146.80 153.37
  L 185.70 153.37
  A 7.38 7.30 33.1 0 0 188.61 152.77
  Q 194.59 150.22 199.92 148.25
  Q 219.81 140.90 241.03 139.33
  L 240.66 147.31
  Q 226.98 147.99 215.23 151.20
  Q 195.08 156.69 174.57 169.29
  Q 169.30 172.52 164.40 177.30
  A 1.00 1.00 0.0 0 0 164.80 178.97
  C 168.64 180.17 173.62 179.39 179.49 179.18
  Q 181.52 179.11 182.93 179.60
  A 2.32 2.32 0.0 0 1 184.48 181.61
  Q 185.04 188.24 181.68 193.12
  A 5.54 5.51 -27.8 0 0 180.70 196.26
  L 180.70 204.16
  A 2.09 2.09 0.0 0 0 182.93 206.24
  C 188.16 205.89 193.05 205.20 197.30 207.40
  A 1.46 1.44 6.9 0 1 198.02 208.31
  Q 199.40 213.58 197.65 217.62
  A 2.50 2.49 12.1 0 1 195.33 219.12
  Q 177.41 218.86 158.75 218.94
  Q 155.92 218.96 154.93 219.32
  A 2.65 2.64 -10.5 0 0 153.21 221.81
  Q 153.22 224.03 153.44 229.41
  Q 153.55 231.98 155.79 231.93
  Q 167.41 231.68 175.41 231.79
  A 2.28 2.27 82.6 0 1 177.56 233.45
  Q 178.79 237.78 178.12 241.42
  C 177.58 244.32 173.70 244.60 170.69 245.34
  A 2.97 2.96 -6.8 0 0 168.42 248.22
  L 168.42 255.70
  A 2.22 2.22 0.0 0 0 170.64 257.92
  L 192.56 257.92
  A 0.84 0.82 -11.0 0 1 193.33 258.43
  Q 195.45 263.60 194.28 268.47
  A 2.54 2.54 0.0 0 1 191.69 270.41
  Q 186.38 270.13 182.49 270.69
  Q 179.95 271.06 179.88 273.72
  Q 179.75 278.80 180.09 282.29
  A 1.98 1.98 0.0 0 0 182.06 284.07
  L 199.03 284.07
  A 1.68 1.68 0.0 0 1 200.70 285.60
  C 200.95 288.13 201.68 292.82 200.56 295.25
  A 2.45 2.45 0.0 0 1 198.29 296.67
  Q 187.04 296.45 176.68 296.64
  Q 174.18 296.69 171.97 297.17
  A 2.24 2.24 0.0 0 0 170.20 299.36
  L 170.20 306.70
  A 3.32 3.31 9.3 0 0 172.46 309.84
  L 175.72 310.93
  A 3.30 3.29 2.5 0 1 177.87 313.27
  Q 178.33 315.20 178.39 319.14
  Q 178.44 322.77 174.99 322.98
  Q 170.54 323.27 159.25 323.13
  Q 155.56 323.08 155.46 326.48
  Q 155.35 330.12 155.57 333.66
  A 2.16 2.16 0.0 0 0 157.73 335.69
  C 162.20 335.68 166.58 335.97 170.77 335.84
  Q 186.17 335.37 208.51 335.88
  Q 210.33 335.92 212.35 336.71
  A 0.99 0.99 0.0 0 1 212.96 337.45
  C 213.30 339.19 213.98 345.28 212.41 347.11
  A 1.68 1.67 -76.7 0 1 211.57 347.63
  C 208.64 348.35 204.09 347.75 204.16 352.08
  Q 204.33 361.12 204.40 371.40
  Q 204.42 374.87 201.21 374.89
  Q 197.53 374.93 194.32 375.44
  A 2.80 2.80 0.0 0 0 191.96 377.98
  Q 191.63 382.00 192.40 384.96
  A 4.18 4.16 3.6 0 0 194.92 387.80
  L 197.80 388.91
  A 1.30 1.26 -9.7 0 1 198.28 389.24
  C 200.57 391.70 200.12 396.72 199.46 399.32
  A 2.08 2.07 -82.8 0 1 197.45 400.88
  L 182.34 400.88
  A 0.55 0.55 0.0 0 0 182.07 401.90
  Q 191.29 407.17 201.52 411.23
  C 204.40 412.38 207.01 413.07 209.95 413.83
  Q 210.20 413.90 218.94 416.58
  Q 220.76 417.13 228.80 418.20
  C 233.61 418.84 237.82 419.87 242.50 420.04
  C 272.94 421.15 302.43 413.32 327.31 396.00
  C 331.61 393.00 337.68 387.97 340.68 385.44
  C 349.51 378.04 356.17 369.65 364.03 358.43
  Q 369.15 351.12 372.32 343.79
  Q 377.94 330.81 379.43 326.45
  Q 386.48 305.87 386.20 282.49
  Q 386.03 269.00 384.11 258.28
  Q 380.94 240.64 371.90 222.22
  Q 365.89 209.97 354.43 195.49
  Q 350.04 189.94 344.47 184.75
  C 342.68 183.09 340.99 182.20 338.86 183.14
  C 328.95 187.52 317.93 189.35 307.00 189.77
  Q 305.99 189.81 303.08 190.47
  A 1.51 1.44 -75.4 0 0 302.29 190.96
  Q 295.70 198.68 291.99 202.24
  Q 290.73 203.46 288.17 205.26
  A 2.11 2.01 88.6 0 0 287.57 205.92
  Q 286.26 208.26 286.38 209.77
  Q 287.13 219.40 285.87 228.33
  A 2.31 2.30 84.6 0 1 284.35 230.18
  Q 281.88 231.04 279.24 230.82
  Q 270.42 230.08 265.05 228.21
  C 258.59 225.97 255.34 224.58 251.75 222.05
  Q 249.70 220.61 247.24 220.93
  A 1.75 1.72 -62.1 0 0 246.67 221.11
  Q 234.53 227.38 228.77 229.06
  C 224.49 230.31 216.16 231.68 211.41 229.95
  A 3.26 3.25 9.7 0 1 209.27 226.94
  L 209.13 214.00
  A 1.36 1.33 52.4 0 1 209.18 213.57
  Q 210.02 210.12 209.16 207.51
  A 2.17 2.15 -78.4 0 0 208.56 206.59
  C 202.23 200.79 197.93 197.39 194.58 191.57
  A 1.79 1.78 -33.6 0 1 195.05 189.27
  L 197.56 187.36
  A 1.52 1.32 12.3 0 1 197.89 187.18
  Q 204.73 184.48 205.97 184.16
  Q 209.18 183.34 222.67 180.69
  Q 223.39 180.55 227.58 178.51
  A 2.52 2.51 -81.4 0 0 228.35 177.94
  Q 231.85 174.10 240.54 169.30
  Q 244.51 167.11 243.63 164.49
  Q 244.86 164.10 245.61 162.10
  Q 259.91 124.13 295.82 106.57
  Q 320.28 94.60 349.99 97.96
  C 354.83 98.50 361.32 100.25 365.54 101.44
  Q 366.27 101.64 366.83 101.42
  Z
  M 170.4709 192.8333
  A 0.89 0.89 0.0 0 0 169.5824 191.9417
  L 144.6825 191.8983
  A 0.89 0.89 0.0 0 0 143.7909 192.7867
  L 143.7691 205.2667
  A 0.89 0.89 0.0 0 0 144.6576 206.1583
  L 169.5575 206.2017
  A 0.89 0.89 0.0 0 0 170.4491 205.3133
  L 170.4709 192.8333
  Z
  M 158.2504 245.2677
  A 0.77 0.77 0.0 0 0 157.4818 244.4964
  L 127.2818 244.4437
  A 0.77 0.77 0.0 0 0 126.5105 245.2123
  L 126.4896 257.2123
  A 0.77 0.77 0.0 0 0 127.2582 257.9836
  L 157.4582 258.0363
  A 0.77 0.77 0.0 0 0 158.2295 257.2677
  L 158.2504 245.2677
  Z"
/>
<path fill="#245f97" d="
  M 240.66 147.31
  Q 240.85 150.34 241.90 161.83
  Q 242.07 163.79 243.63 164.49
  Q 244.51 167.11 240.54 169.30
  Q 231.85 174.10 228.35 177.94
  A 2.52 2.51 -81.4 0 1 227.58 178.51
  Q 223.39 180.55 222.67 180.69
  Q 209.18 183.34 205.97 184.16
  Q 204.73 184.48 197.89 187.18
  A 1.52 1.32 12.3 0 0 197.56 187.36
  L 195.05 189.27
  A 1.79 1.78 -33.6 0 0 194.58 191.57
  C 197.93 197.39 202.23 200.79 208.56 206.59
  A 2.17 2.15 -78.4 0 1 209.16 207.51
  Q 210.02 210.12 209.18 213.57
  A 1.36 1.33 52.4 0 0 209.13 214.00
  L 209.27 226.94
  A 3.26 3.25 9.7 0 0 211.41 229.95
  C 216.16 231.68 224.49 230.31 228.77 229.06
  Q 234.53 227.38 246.67 221.11
  A 1.75 1.72 -62.1 0 1 247.24 220.93
  Q 249.70 220.61 251.75 222.05
  C 255.34 224.58 258.59 225.97 265.05 228.21
  Q 270.42 230.08 279.24 230.82
  Q 281.88 231.04 284.35 230.18
  A 2.31 2.30 84.6 0 0 285.87 228.33
  Q 287.13 219.40 286.38 209.77
  Q 286.26 208.26 287.57 205.92
  A 2.11 2.01 88.6 0 1 288.17 205.26
  Q 290.73 203.46 291.99 202.24
  Q 295.70 198.68 302.29 190.96
  A 1.51 1.44 -75.4 0 1 303.08 190.47
  Q 305.99 189.81 307.00 189.77
  C 317.93 189.35 328.95 187.52 338.86 183.14
  C 340.99 182.20 342.68 183.09 344.47 184.75
  Q 350.04 189.94 354.43 195.49
  Q 365.89 209.97 371.90 222.22
  Q 380.94 240.64 384.11 258.28
  Q 386.03 269.00 386.20 282.49
  Q 386.48 305.87 379.43 326.45
  Q 377.94 330.81 372.32 343.79
  Q 369.15 351.12 364.03 358.43
  C 356.17 369.65 349.51 378.04 340.68 385.44
  C 337.68 387.97 331.61 393.00 327.31 396.00
  C 302.43 413.32 272.94 421.15 242.50 420.04
  C 237.82 419.87 233.61 418.84 228.80 418.20
  Q 220.76 417.13 218.94 416.58
  Q 210.20 413.90 209.95 413.83
  C 207.01 413.07 204.40 412.38 201.52 411.23
  Q 191.29 407.17 182.07 401.90
  A 0.55 0.55 0.0 0 1 182.34 400.88
  L 197.45 400.88
  A 2.08 2.07 -82.8 0 0 199.46 399.32
  C 200.12 396.72 200.57 391.70 198.28 389.24
  A 1.30 1.26 -9.7 0 0 197.80 388.91
  L 194.92 387.80
  A 4.18 4.16 3.6 0 1 192.40 384.96
  Q 191.63 382.00 191.96 377.98
  A 2.80 2.80 0.0 0 1 194.32 375.44
  Q 197.53 374.93 201.21 374.89
  Q 204.42 374.87 204.40 371.40
  Q 204.33 361.12 204.16 352.08
  C 204.09 347.75 208.64 348.35 211.57 347.63
  A 1.68 1.67 -76.7 0 0 212.41 347.11
  C 213.98 345.28 213.30 339.19 212.96 337.45
  A 0.99 0.99 0.0 0 0 212.35 336.71
  Q 210.33 335.92 208.51 335.88
  Q 186.17 335.37 170.77 335.84
  C 166.58 335.97 162.20 335.68 157.73 335.69
  A 2.16 2.16 0.0 0 1 155.57 333.66
  Q 155.35 330.12 155.46 326.48
  Q 155.56 323.08 159.25 323.13
  Q 170.54 323.27 174.99 322.98
  Q 178.44 322.77 178.39 319.14
  Q 178.33 315.20 177.87 313.27
  A 3.30 3.29 2.5 0 0 175.72 310.93
  L 172.46 309.84
  A 3.32 3.31 9.3 0 1 170.20 306.70
  L 170.20 299.36
  A 2.24 2.24 0.0 0 1 171.97 297.17
  Q 174.18 296.69 176.68 296.64
  Q 187.04 296.45 198.29 296.67
  A 2.45 2.45 0.0 0 0 200.56 295.25
  C 201.68 292.82 200.95 288.13 200.70 285.60
  A 1.68 1.68 0.0 0 0 199.03 284.07
  L 182.06 284.07
  A 1.98 1.98 0.0 0 1 180.09 282.29
  Q 179.75 278.80 179.88 273.72
  Q 179.95 271.06 182.49 270.69
  Q 186.38 270.13 191.69 270.41
  A 2.54 2.54 0.0 0 0 194.28 268.47
  Q 195.45 263.60 193.33 258.43
  A 0.84 0.82 -11.0 0 0 192.56 257.92
  L 170.64 257.92
  A 2.22 2.22 0.0 0 1 168.42 255.70
  L 168.42 248.22
  A 2.97 2.96 -6.8 0 1 170.69 245.34
  C 173.70 244.60 177.58 244.32 178.12 241.42
  Q 178.79 237.78 177.56 233.45
  A 2.28 2.27 82.6 0 0 175.41 231.79
  Q 167.41 231.68 155.79 231.93
  Q 153.55 231.98 153.44 229.41
  Q 153.22 224.03 153.21 221.81
  A 2.65 2.64 -10.5 0 1 154.93 219.32
  Q 155.92 218.96 158.75 218.94
  Q 177.41 218.86 195.33 219.12
  A 2.50 2.49 12.1 0 0 197.65 217.62
  Q 199.40 213.58 198.02 208.31
  A 1.46 1.44 6.9 0 0 197.30 207.40
  C 193.05 205.20 188.16 205.89 182.93 206.24
  A 2.09 2.09 0.0 0 1 180.70 204.16
  L 180.70 196.26
  A 5.54 5.51 -27.8 0 1 181.68 193.12
  Q 185.04 188.24 184.48 181.61
  A 2.32 2.32 0.0 0 0 182.93 179.60
  Q 181.52 179.11 179.49 179.18
  C 173.62 179.39 168.64 180.17 164.80 178.97
  A 1.00 1.00 0.0 0 1 164.40 177.30
  Q 169.30 172.52 174.57 169.29
  Q 195.08 156.69 215.23 151.20
  Q 226.98 147.99 240.66 147.31
  Z
  M 247.14 342.45
  Q 250.08 342.45 264.03 342.59
  A 0.87 0.86 85.6 0 0 264.89 341.58
  L 259.26 307.61
  A 1.34 1.33 -21.8 0 1 259.83 306.29
  C 264.25 303.29 267.86 299.75 269.99 294.77
  C 277.12 278.12 265.27 259.83 247.13 259.83
  C 228.99 259.83 217.15 278.13 224.28 294.78
  C 226.41 299.76 230.02 303.29 234.44 306.29
  A 1.34 1.33 21.8 0 1 235.01 307.61
  L 229.39 341.58
  A 0.87 0.86 -85.6 0 0 230.25 342.59
  Q 244.21 342.45 247.14 342.45
  Z"
/>
<rect fill="#0b7d64" x="-6.01" y="-6.37" transform="translate(125.97,159.79) rotate(-0.1)" width="12.02" height="12.74" rx="1.24"/>
<rect fill="#0b7d64" x="-11.20" y="-6.38" transform="translate(71.48,212.60) rotate(0.4)" width="22.40" height="12.76" rx="1.22"/>
<rect fill="#0b7d64" x="-10.97" y="-6.33" transform="translate(100.44,290.39) rotate(0.2)" width="21.94" height="12.66" rx="1.02"/>
<rect fill="#0b7d64" x="-11.22" y="-6.33" transform="translate(125.81,368.78) rotate(0.5)" width="22.44" height="12.66" rx="1.16"/>
<rect fill="#0b7d64" x="-11.09" y="-6.41" transform="translate(151.69,394.58) rotate(0.6)" width="22.18" height="12.82" rx="0.88"/>
<path fill="#0b7d64" d="
  M 120.19 438.56
  Q 121.82 438.56 122.75 438.61
  A 1.27 1.25 -9.4 0 1 123.85 439.38
  L 137.11 471.23
  A 0.85 0.85 0.0 0 1 136.32 472.41
  L 131.64 472.41
  A 1.97 1.96 -11.1 0 1 129.82 471.20
  L 127.50 465.63
  A 1.65 1.65 0.0 0 0 126.05 464.61
  Q 125.26 464.58 120.19 464.58
  Q 115.12 464.58 114.34 464.61
  A 1.65 1.65 0.0 0 0 112.88 465.63
  L 110.56 471.20
  A 1.97 1.96 11.1 0 1 108.74 472.41
  L 104.06 472.41
  A 0.85 0.85 0.0 0 1 103.27 471.23
  L 116.54 439.38
  A 1.27 1.25 9.5 0 1 117.64 438.61
  Q 118.57 438.56 120.19 438.56
  Z
  M 115.92 457.77
  A 0.81 0.81 0.0 0 0 116.67 458.89
  L 123.66 458.87
  A 0.81 0.81 0.0 0 0 124.41 457.76
  L 120.90 449.15
  A 0.81 0.81 0.0 0 0 119.40 449.15
  L 115.92 457.77
  Z"
/>
<path fill="#0b7d64" d="
  M 154.01 466.42
  C 158.22 466.42 161.09 463.69 161.28 459.50
  Q 161.36 457.70 161.29 439.61
  A 0.96 0.96 0.0 0 1 162.25 438.65
  L 167.14 438.65
  A 1.01 1.01 0.0 0 1 168.15 439.67
  Q 168.13 444.81 168.22 454.49
  Q 168.29 462.70 166.66 465.73
  C 164.08 470.51 159.57 473.05 154.01 473.05
  C 148.46 473.05 143.95 470.51 141.37 465.73
  Q 139.74 462.70 139.81 454.49
  Q 139.90 444.81 139.88 439.67
  A 1.01 1.01 0.0 0 1 140.89 438.65
  L 145.78 438.65
  A 0.96 0.96 0.0 0 1 146.74 439.61
  Q 146.67 457.70 146.75 459.50
  C 146.94 463.69 149.81 466.42 154.01 466.42
  Z"
/>
<path fill="#0b7d64" d="
  M 186.20 438.66
  Q 192.86 438.67 199.19 438.74
  A 0.84 0.83 -89.8 0 1 200.01 439.58
  L 200.01 443.94
  A 1.01 1.00 -90.0 0 1 199.01 444.95
  L 190.47 444.95
  A 1.04 1.04 0.0 0 0 189.43 445.99
  L 189.43 471.57
  A 0.67 0.67 0.0 0 1 188.90 472.23
  Q 188.39 472.34 186.14 472.34
  Q 183.90 472.33 183.38 472.22
  A 0.67 0.67 0.0 0 1 182.86 471.56
  L 182.94 445.98
  A 1.04 1.04 0.0 0 0 181.91 444.94
  L 173.37 444.91
  A 1.01 1.00 -89.8 0 1 172.37 443.89
  L 172.38 439.53
  A 0.84 0.83 90.0 0 1 173.21 438.70
  Q 179.54 438.65 186.20 438.66
  Z"
/>
<path fill="#0b7d64" d="
  M 218.70 452.37
  Q 225.14 452.37 225.20 452.37
  A 0.90 0.89 -89.6 0 0 226.10 451.47
  L 226.09 439.67
  A 0.97 0.96 0.0 0 1 227.06 438.71
  L 231.82 438.71
  A 0.96 0.95 0.1 0 1 232.78 439.67
  Q 232.78 454.46 232.78 455.52
  Q 232.78 456.58 232.78 471.37
  A 0.96 0.95 -0.1 0 1 231.83 472.33
  L 227.07 472.33
  A 0.97 0.96 -0.0 0 1 226.10 471.37
  L 226.11 459.57
  A 0.90 0.89 89.6 0 0 225.20 458.67
  Q 225.14 458.67 218.70 458.67
  Q 212.25 458.67 212.19 458.67
  A 0.90 0.89 -89.6 0 0 211.29 459.57
  L 211.30 471.37
  A 0.97 0.96 0.0 0 1 210.33 472.33
  L 205.57 472.33
  A 0.96 0.95 0.1 0 1 204.61 471.37
  Q 204.62 456.59 204.62 455.52
  Q 204.62 454.46 204.61 439.67
  A 0.96 0.95 -0.1 0 1 205.57 438.72
  L 210.33 438.71
  A 0.97 0.96 -0.0 0 1 211.30 439.67
  L 211.29 451.47
  A 0.90 0.89 89.6 0 0 212.19 452.37
  Q 212.25 452.37 218.70 452.37
  Z"
/>
<path fill="#0b7d64" d="
  M 240.65 439.29
  A 0.53 0.53 0.0 0 1 241.18 438.76
  Q 246.13 438.78 254.00 438.70
  C 258.37 438.66 263.54 439.44 265.21 443.74
  Q 267.16 448.74 263.32 453.18
  A 0.86 0.85 34.0 0 0 263.58 454.50
  Q 268.19 456.87 268.40 462.26
  C 268.67 469.00 263.77 472.02 257.49 472.26
  Q 249.86 472.55 241.37 472.32
  A 0.74 0.74 0.0 0 1 240.65 471.58
  L 240.65 439.29
  Z
  M 247.28 445.49
  L 247.26 450.91
  A 0.97 0.97 0.0 0 0 248.22 451.88
  L 255.35 451.92
  A 4.00 3.49 0.3 0 0 259.37 448.45
  L 259.37 448.07
  A 4.00 3.49 0.3 0 0 255.39 444.56
  L 248.26 444.52
  A 0.97 0.97 0.0 0 0 247.28 445.49
  Z
  M 247.26 458.73
  L 247.24 465.19
  A 1.14 1.14 0.0 0 0 248.38 466.33
  L 256.11 466.34
  A 5.03 4.11 0.1 0 0 261.15 462.24
  L 261.15 461.72
  A 5.03 4.11 0.1 0 0 256.13 457.60
  L 248.40 457.59
  A 1.14 1.14 0.0 0 0 247.26 458.73
  Z"
/>
<path fill="#0b7d64" d="
  M 281.18 459.64
  L 281.18 465.19
  A 1.00 1.00 0.0 0 0 282.18 466.19
  L 298.08 466.19
  A 1.00 1.00 0.0 0 1 299.08 467.19
  L 299.08 471.38
  A 1.00 1.00 0.0 0 1 298.08 472.38
  L 275.33 472.38
  A 1.00 1.00 0.0 0 1 274.33 471.38
  L 274.33 439.70
  A 1.00 1.00 0.0 0 1 275.33 438.70
  L 297.43 438.70
  A 1.00 1.00 0.0 0 1 298.43 439.70
  L 298.43 443.99
  A 1.00 1.00 0.0 0 1 297.43 444.99
  L 282.15 444.99
  A 1.00 1.00 0.0 0 0 281.15 445.99
  L 281.15 451.42
  A 1.00 1.00 0.0 0 0 282.15 452.42
  L 294.16 452.42
  A 1.00 1.00 0.0 0 1 295.16 453.42
  L 295.16 457.64
  A 1.00 1.00 0.0 0 1 294.16 458.64
  L 282.18 458.64
  A 1.00 1.00 0.0 0 0 281.18 459.64
  Z"
/>
<path fill="#0b7d64" d="
  M 332.72 471.29
  A 0.72 0.71 -15.0 0 1 332.09 472.36
  L 326.95 472.37
  A 2.64 2.63 -15.1 0 1 324.67 471.06
  L 317.92 459.42
  A 1.02 1.01 -14.8 0 0 317.04 458.91
  L 312.58 458.92
  A 0.76 0.76 0.0 0 0 311.82 459.68
  L 311.84 471.24
  A 1.13 1.13 0.0 0 1 310.72 472.37
  L 306.08 472.38
  A 1.10 1.10 0.0 0 1 304.98 471.28
  L 304.92 439.29
  A 0.56 0.56 0.0 0 1 305.48 438.73
  Q 316.83 438.64 317.87 438.65
  C 325.10 438.70 332.22 440.84 331.39 449.72
  C 331.02 453.52 329.24 456.05 325.78 457.54
  A 0.80 0.79 -26.9 0 0 325.40 458.68
  L 332.72 471.29
  Z
  M 311.79 445.64
  L 311.85 452.34
  A 0.78 0.78 0.0 0 0 312.64 453.11
  L 319.96 453.05
  A 4.78 3.82 -0.5 0 0 324.70 449.18
  L 324.70 448.56
  A 4.78 3.82 -0.5 0 0 319.88 444.79
  L 312.56 444.85
  A 0.78 0.78 0.0 0 0 311.79 445.64
  Z"
/>
<path fill="#0b7d64" d="
  M 366.53 471.31
  A 0.72 0.71 -14.9 0 1 365.90 472.38
  L 360.77 472.38
  A 2.64 2.63 -15.0 0 1 358.49 471.07
  L 351.76 459.42
  A 1.01 1.01 0.0 0 0 350.88 458.91
  L 346.43 458.91
  A 0.76 0.76 0.0 0 0 345.67 459.67
  L 345.67 471.22
  A 1.13 1.13 0.0 0 1 344.54 472.35
  L 339.91 472.35
  A 1.10 1.10 0.0 0 1 338.81 471.25
  L 338.81 439.28
  A 0.56 0.56 0.0 0 1 339.37 438.72
  Q 350.71 438.65 351.75 438.66
  C 358.98 438.72 366.09 440.88 365.24 449.75
  C 364.87 453.55 363.08 456.07 359.62 457.56
  A 0.80 0.79 -26.8 0 0 359.24 458.69
  L 366.53 471.31
  Z
  M 345.63 445.72
  L 345.67 452.22
  A 0.86 0.86 0.0 0 0 346.53 453.08
  L 353.88 453.04
  A 4.53 3.85 -0.3 0 0 358.39 449.17
  L 358.39 448.65
  A 4.53 3.85 -0.3 0 0 353.84 444.82
  L 346.49 444.86
  A 0.86 0.86 0.0 0 0 345.63 445.72
  Z"
/>
<path fill="#0b7d64" d="
  M 383.62 449.93
  Q 384.06 449.93 384.21 449.73
  Q 387.67 444.68 391.04 439.82
  A 2.70 2.68 17.3 0 1 393.25 438.67
  L 398.56 438.67
  A 0.72 0.72 0.0 0 1 399.14 439.82
  Q 396.60 443.21 388.73 454.75
  C 387.56 456.46 386.97 457.43 387.00 459.58
  Q 387.13 469.26 387.00 471.36
  A 1.01 1.00 -5.5 0 1 386.24 472.28
  Q 385.72 472.41 383.59 472.41
  Q 381.47 472.41 380.95 472.28
  A 1.01 1.00 5.6 0 1 380.19 471.35
  Q 380.06 469.25 380.21 459.57
  C 380.25 457.42 379.66 456.45 378.49 454.74
  Q 370.64 443.19 368.11 439.79
  A 0.72 0.72 0.0 0 1 368.69 438.64
  L 374.00 438.65
  A 2.70 2.68 -17.2 0 1 376.21 439.81
  Q 379.57 444.67 383.02 449.72
  Q 383.17 449.93 383.62 449.93
  Z"
/>
</g>
<g>
<path fill="#309b67" d="
  M 235.15 178.20
  L 245.06 171.41
  A 2.12 2.11 -42.4 0 1 247.59 171.52
  Q 251.68 174.85 258.09 178.16
  Q 258.49 178.36 258.54 178.55
  A 0.55 0.55 0.0 0 1 257.94 179.25
  Q 246.36 177.80 235.52 179.17
  A 0.53 0.53 0.0 0 1 235.15 178.20
  Z"
/>
<path fill="#309b67" d="
  M 214.26 186.67
  A 0.53 0.53 0.0 0 1 214.79 187.55
  L 210.91 191.43
  A 2.48 2.39 78.3 0 0 210.31 192.38
  L 208.16 198.79
  A 0.56 0.56 0.0 0 1 207.23 199.01
  L 201.41 193.20
  A 1.69 1.69 0.0 0 1 202.11 190.40
  L 214.26 186.67
  Z"
/>
<path fill="#309b67" d="
  M 279.50 187.08
  Q 284.50 187.69 290.73 189.29
  Q 293.37 189.96 295.14 191.24
  A 1.00 1.00 0.0 0 1 295.26 192.76
  L 287.16 200.86
  A 0.58 0.57 67.0 0 1 286.18 200.46
  Q 286.05 192.51 279.30 187.60
  A 0.29 0.29 0.0 0 1 279.50 187.08
  Z"
/>
<path fill="#309b67" d="
  M 281.36 211.27
  A 0.59 0.59 0.0 0 1 282.21 211.80
  L 282.21 224.38
  A 1.41 1.40 -88.6 0 1 280.74 225.79
  Q 268.99 225.29 258.32 220.64
  A 0.65 0.64 -37.2 0 1 258.49 219.41
  Q 267.85 218.10 276.96 213.45
  Q 277.90 212.97 281.36 211.27
  Z"
/>
<path fill="#309b67" d="
  M 214.78 211.73
  Q 218.19 213.37 219.11 213.84
  Q 228.08 218.33 237.26 219.54
  A 0.63 0.63 0.0 0 1 237.44 220.75
  Q 227.01 225.38 215.50 225.96
  A 1.38 1.38 0.0 0 1 214.05 224.59
  L 213.96 212.26
  A 0.58 0.58 0.0 0 1 214.78 211.73
  Z"
/>
</g>
</svg>
